<svg width="228" height="228" viewBox="0 0 228 228" fill="none" xmlns="http://www.w3.org/2000/svg">
<g opacity="0.980461">
<path d="M81.7621 34.2551C81.7534 34.2295 81.7484 34.2164 81.7484 34.2164" stroke="#31AF0E" stroke-width="7" stroke-linecap="round" stroke-linejoin="round"/>
<path d="M34.8698 80.2777C34.8455 80.2658 34.8327 80.2601 34.8327 80.2601" stroke="#31AF0E" stroke-width="7" stroke-linecap="round" stroke-linejoin="round"/>
<path d="M34.2549 145.979C34.2293 145.987 34.2163 145.992 34.2163 145.992" stroke="#31AF0E" stroke-width="7" stroke-linecap="round" stroke-linejoin="round"/>
<path d="M80.2777 192.871C80.2658 192.895 80.2601 192.908 80.2601 192.908" stroke="#31AF0E" stroke-width="7" stroke-linecap="round" stroke-linejoin="round"/>
<path d="M145.979 193.486C145.987 193.511 145.992 193.525 145.992 193.525" stroke="#31AF0E" stroke-width="7" stroke-linecap="round" stroke-linejoin="round"/>
<path d="M192.871 147.463C192.895 147.475 192.908 147.481 192.908 147.481" stroke="#31AF0E" stroke-width="7" stroke-linecap="round" stroke-linejoin="round"/>
<path d="M193.486 81.7622C193.511 81.7535 193.524 81.7485 193.524 81.7485" stroke="#31AF0E" stroke-width="7" stroke-linecap="round" stroke-linejoin="round"/>
<path d="M147.463 34.8697C147.475 34.8455 147.481 34.8327 147.481 34.8327" stroke="#31AF0E" stroke-width="7" stroke-linecap="round" stroke-linejoin="round"/>
</g>
<path d="M45.5773 44.8702C42.6478 41.9406 40.2966 39.5895 38.903 38.1958" stroke="#F95428" stroke-width="7" stroke-linecap="round" stroke-linejoin="round"/>
<path d="M16.7894 113.37C12.6464 113.37 9.32138 113.37 7.3504 113.37" stroke="#F95428" stroke-width="7" stroke-linecap="round" stroke-linejoin="round"/>
<path d="M44.8702 182.164C41.9407 185.093 39.5896 187.444 38.1959 188.838" stroke="#F95428" stroke-width="7" stroke-linecap="round" stroke-linejoin="round"/>
<path d="M113.37 210.951C113.37 215.094 113.37 218.419 113.37 220.39" stroke="#F95428" stroke-width="7" stroke-linecap="round" stroke-linejoin="round"/>
<path d="M182.163 182.871C185.093 185.8 187.444 188.151 188.838 189.545" stroke="#F95428" stroke-width="7" stroke-linecap="round" stroke-linejoin="round"/>
<path d="M210.951 114.37C215.094 114.37 218.419 114.37 220.39 114.37" stroke="#F95428" stroke-width="7" stroke-linecap="round" stroke-linejoin="round"/>
<path d="M182.871 45.5772C185.8 42.6477 188.151 40.2965 189.545 38.9028" stroke="#F95428" stroke-width="7" stroke-linecap="round" stroke-linejoin="round"/>
<path d="M114.37 16.7893C114.37 12.6463 114.37 9.32132 114.37 7.35034" stroke="#F95428" stroke-width="7" stroke-linecap="round" stroke-linejoin="round"/>
<path d="M82.9738 34.2248C82.8238 33.7865 82.7306 33.5159 82.7074 33.4498" stroke="#FFDD00" stroke-width="7" stroke-linecap="round" stroke-linejoin="round"/>
<path d="M35.7052 79.3995C35.2892 79.1957 35.032 79.0702 34.9688 79.0399" stroke="#FFDD00" stroke-width="7" stroke-linecap="round" stroke-linejoin="round"/>
<path d="M34.2247 144.767C33.7864 144.917 33.5158 145.01 33.4498 145.033" stroke="#FFDD00" stroke-width="7" stroke-linecap="round" stroke-linejoin="round"/>
<path d="M79.3996 192.035C79.1957 192.452 79.0703 192.709 79.04 192.772" stroke="#FFDD00" stroke-width="7" stroke-linecap="round" stroke-linejoin="round"/>
<path d="M144.767 193.516C144.917 193.954 145.01 194.225 145.033 194.291" stroke="#FFDD00" stroke-width="7" stroke-linecap="round" stroke-linejoin="round"/>
<path d="M192.036 148.341C192.452 148.545 192.709 148.671 192.772 148.701" stroke="#FFDD00" stroke-width="7" stroke-linecap="round" stroke-linejoin="round"/>
<path d="M193.516 82.9737C193.954 82.8236 194.225 82.7305 194.291 82.7072" stroke="#FFDD00" stroke-width="7" stroke-linecap="round" stroke-linejoin="round"/>
<path d="M148.341 35.7052C148.545 35.2892 148.671 35.032 148.701 34.9688" stroke="#FFDD00" stroke-width="7" stroke-linecap="round" stroke-linejoin="round"/>
<path d="M106.147 86.3706L105.982 102.052L90.6566 98.0365L100.723 110.153L86.3706 116.82L101.958 119.703L95.2976 133.934L109.109 126.235L113.257 141.37L118.833 126.69L131.847 135.649L126.58 120.857L142.37 119.446L128.722 111.465L139.901 100.345L124.26 102.909L125.595 87.2826L115.278 99.1905L106.147 86.3706Z" fill="#FFDD00"/>
</svg>
