<svg width="116" height="116" viewBox="0 0 116 116" fill="none" xmlns="http://www.w3.org/2000/svg">
<g opacity="0.01">
<path d="M55.4488 51.1112C55.442 51.0933 55.4391 51.0837 55.4391 51.0837" stroke="#31AF0E" stroke-width="4.97" stroke-linecap="round" stroke-linejoin="round"/>
<path d="M51.3296 54.9213C51.3121 54.9135 51.3033 54.9088 51.3033 54.9088" stroke="#31AF0E" stroke-width="4.97" stroke-linecap="round" stroke-linejoin="round"/>
<path d="M51.111 60.5281C51.0931 60.535 51.0836 60.5379 51.0836 60.5379" stroke="#31AF0E" stroke-width="4.97" stroke-linecap="round" stroke-linejoin="round"/>
<path d="M54.9212 64.6475C54.9134 64.665 54.9087 64.6738 54.9087 64.6738" stroke="#31AF0E" stroke-width="4.97" stroke-linecap="round" stroke-linejoin="round"/>
<path d="M60.5281 64.8659C60.5349 64.8838 60.5378 64.8933 60.5378 64.8933" stroke="#31AF0E" stroke-width="4.97" stroke-linecap="round" stroke-linejoin="round"/>
<path d="M64.6473 61.0558C64.6648 61.0636 64.6736 61.0683 64.6736 61.0683" stroke="#31AF0E" stroke-width="4.97" stroke-linecap="round" stroke-linejoin="round"/>
<path d="M64.8659 55.4489C64.8838 55.442 64.8933 55.4391 64.8933 55.4391" stroke="#31AF0E" stroke-width="4.97" stroke-linecap="round" stroke-linejoin="round"/>
<path d="M61.0558 51.3298C61.0636 51.3123 61.0682 51.3035 61.0682 51.3035" stroke="#31AF0E" stroke-width="4.97" stroke-linecap="round" stroke-linejoin="round"/>
</g>
<path d="M42.4944 20.1771C42.4944 20.1771 42.0967 19.0201 41.4961 17.2733" stroke="#FFDD00" stroke-width="4.97" stroke-linecap="round" stroke-linejoin="round"/>
<path d="M20.2958 42.2076C20.2958 42.2076 19.1965 41.6707 17.5366 40.8602" stroke="#FFDD00" stroke-width="4.97" stroke-linecap="round" stroke-linejoin="round"/>
<path d="M20.177 73.4826C20.177 73.4826 19.02 73.8803 17.2732 74.4809" stroke="#FFDD00" stroke-width="4.97" stroke-linecap="round" stroke-linejoin="round"/>
<path d="M42.2077 95.6813C42.2077 95.6813 41.6708 96.7806 40.8603 98.4404" stroke="#FFDD00" stroke-width="4.97" stroke-linecap="round" stroke-linejoin="round"/>
<path d="M73.4826 95.8C73.4826 95.8 73.8803 96.9569 74.4808 98.7037" stroke="#FFDD00" stroke-width="4.97" stroke-linecap="round" stroke-linejoin="round"/>
<path d="M95.6812 73.7695C95.6812 73.7695 96.7805 74.3063 98.4403 75.1168" stroke="#FFDD00" stroke-width="4.97" stroke-linecap="round" stroke-linejoin="round"/>
<path d="M95.8 42.4945C95.8 42.4945 96.957 42.0968 98.7038 41.4962" stroke="#FFDD00" stroke-width="4.97" stroke-linecap="round" stroke-linejoin="round"/>
<path d="M73.7694 20.2957C73.7694 20.2957 74.3062 19.1965 75.1167 17.5366" stroke="#FFDD00" stroke-width="4.97" stroke-linecap="round" stroke-linejoin="round"/>
<path d="M54.0184 43.5239L53.9316 51.7719L45.8703 49.6601L51.1649 56.0334L43.616 59.5401L51.8145 61.0566L48.3114 68.5418L55.5763 64.4923L57.7581 72.4531L60.691 64.7316L67.5362 69.4439L64.7658 61.6635L73.0711 60.9214L65.8925 56.7235L71.7724 50.874L63.5455 52.2227L64.2477 44.0036L58.8211 50.267L54.0184 43.5239Z" fill="#FFDD00"/>
</svg>
